<?xml version="1.0" standalone="no"?>
<!DOCTYPE svg PUBLIC "-//W3C//DTD SVG 20010904//EN"
 "http://www.w3.org/TR/2001/REC-SVG-20010904/DTD/svg10.dtd">
<svg version="1.0" xmlns="http://www.w3.org/2000/svg"
 width="579.000000pt" height="431.000000pt" viewBox="0 0 579.000000 431.000000"
 preserveAspectRatio="xMidYMid meet">

<g transform="translate(0.000000,431.000000) scale(0.100000,-0.100000)"
fill="#000000" stroke="none">
<path d="M2243 3845 c-85 -31 -136 -68 -183 -135 -13 -19 -27 -37 -30 -40 -10
-8 -80 -130 -80 -139 0 -21 -40 -41 -83 -41 -151 0 -293 -83 -351 -205 -10
-22 -24 -51 -31 -65 -8 -17 -48 -43 -120 -80 -133 -68 -200 -131 -250 -235
-33 -68 -35 -78 -35 -173 l0 -101 -57 -35 c-83 -50 -135 -109 -182 -206 -73
-154 -77 -244 -16 -389 40 -95 41 -104 16 -139 -66 -95 -71 -114 -71 -257 0
-117 3 -141 21 -180 22 -47 141 -165 165 -165 8 0 14 -4 14 -10 0 -5 8 -10 18
-10 10 0 22 -4 27 -8 6 -5 31 -16 57 -26 l46 -17 -5 -53 c-13 -124 70 -262
194 -321 62 -29 170 -34 213 -10 50 29 95 14 173 -56 10 -9 40 -28 68 -43 46
-25 56 -27 137 -23 48 3 104 8 125 12 24 5 37 3 37 -4 0 -6 7 -11 15 -11 8 0
29 -8 47 -18 50 -27 98 -41 190 -57 135 -24 272 2 424 80 l71 36 89 -9 c192
-22 478 54 576 151 35 35 64 45 133 44 118 -1 225 23 330 74 84 41 142 98 184
181 15 29 45 42 132 59 99 19 109 21 109 30 0 5 8 9 18 9 41 1 127 75 180 155
51 78 54 81 127 110 134 55 202 120 240 230 13 38 15 66 10 118 -4 45 -2 80 6
105 7 20 13 69 13 107 -1 60 -5 78 -33 128 -29 51 -31 62 -22 89 6 17 11 76
11 131 0 94 -2 104 -35 173 -35 73 -104 152 -228 259 l-46 40 -2 120 c-2 124
-4 133 -60 250 -72 151 -246 256 -371 224 -47 -12 -49 -12 -78 16 -16 16 -30
34 -30 41 0 14 -130 154 -143 154 -5 0 -15 7 -23 15 -19 19 -119 49 -159 48
-16 -1 -65 -13 -109 -27 l-78 -26 -54 32 c-30 18 -54 36 -54 40 0 5 -8 8 -18
8 -10 0 -22 4 -27 8 -24 21 -107 37 -185 36 -81 0 -196 -26 -258 -56 -19 -10
-33 -7 -85 19 -89 44 -138 49 -236 24 -102 -27 -111 -26 -176 5 -72 34 -137
37 -212 9z m997 -86 c0 -5 -4 -7 -10 -4 -16 10 -11 -1 7 -16 11 -10 14 -10 9
-1 -4 6 -3 12 3 12 5 0 11 -4 13 -9 2 -5 14 -4 28 2 14 5 31 11 38 13 15 3 16
-13 0 -18 -25 -9 -16 -37 14 -43 16 -4 32 -4 35 -1 3 3 11 -2 18 -11 8 -10 19
-14 31 -9 16 6 15 9 -10 25 -15 10 -24 21 -19 24 11 7 20 0 58 -42 l30 -34
-27 5 -27 5 17 -26 c17 -25 17 -27 -4 -46 -12 -11 -28 -21 -35 -23 -38 -9 -60
-64 -36 -89 4 -3 8 -20 8 -37 1 -17 3 -24 5 -16 3 9 21 24 40 35 20 10 44 35
54 55 10 19 30 45 44 57 14 13 26 26 26 31 0 4 10 9 23 10 42 4 52 7 76 24 21
15 27 15 70 1 25 -9 65 -25 88 -35 24 -10 47 -18 53 -18 5 0 10 -4 10 -10 0
-5 7 -10 16 -10 8 0 12 -4 9 -10 -3 -5 -2 -10 3 -10 4 0 14 -16 22 -35 8 -19
24 -45 37 -57 19 -18 23 -31 23 -82 -1 -34 -5 -80 -9 -103 -6 -32 -5 -46 5
-54 11 -9 23 -2 54 32 22 24 40 47 40 51 0 17 104 28 167 18 63 -10 109 -30
97 -43 -3 -3 2 -16 11 -30 9 -14 18 -38 21 -53 2 -16 7 -40 11 -54 3 -14 6
-28 5 -32 -1 -5 1 -7 6 -7 20 3 23 -3 11 -18 -8 -9 -9 -14 -3 -10 14 8 27 -20
17 -35 -3 -7 -1 -8 5 -4 12 7 17 -10 14 -47 -1 -11 2 -16 10 -11 7 4 8 3 4 -5
-12 -19 -14 -61 -4 -61 6 0 7 -8 3 -17 -4 -10 -9 -40 -12 -68 -2 -27 -6 -55
-8 -62 -2 -6 3 -17 10 -23 16 -13 10 -34 -6 -24 -5 3 -9 2 -7 -3 3 -14 -36
-93 -47 -93 -6 0 -24 -13 -40 -30 -16 -17 -34 -30 -41 -30 -18 0 -25 -28 -9
-34 8 -3 27 1 42 9 16 8 48 20 72 27 34 10 49 21 64 48 36 67 78 84 133 55 16
-8 36 -15 45 -15 29 0 80 -139 64 -176 -4 -10 -8 -39 -9 -64 -1 -34 -5 -46
-19 -48 -9 -2 -15 -7 -12 -11 2 -5 -19 -16 -49 -25 -97 -31 -155 -106 -81
-106 14 0 25 -4 25 -10 0 -5 11 -12 25 -16 13 -3 23 -9 22 -13 -1 -3 2 -7 6
-8 5 -1 15 -10 24 -20 10 -13 16 -15 19 -5 3 6 10 10 15 7 9 -6 -12 -35 -21
-30 -3 2 -5 -42 -5 -96 -1 -54 3 -99 8 -99 4 0 5 -6 0 -12 -4 -7 -9 -22 -10
-33 -2 -11 -8 -24 -14 -30 -7 -7 -8 -4 -4 8 4 9 3 17 -3 17 -6 0 -14 -9 -17
-20 -6 -20 -15 -24 -47 -21 -10 1 -18 -3 -18 -9 0 -6 -4 -9 -9 -6 -5 3 -22 -4
-37 -16 -26 -20 -27 -20 -14 -3 8 11 -2 5 -21 -12 -19 -18 -39 -33 -44 -33 -6
0 -3 5 5 10 12 8 11 10 -7 10 -13 0 -23 -6 -24 -12 0 -7 -4 -3 -9 10 -5 12
-13 22 -18 22 -5 0 -22 35 -37 78 -15 42 -35 84 -45 93 -13 11 -15 20 -8 32 6
11 5 17 -1 17 -5 0 -8 10 -6 23 2 12 -3 36 -11 52 -8 17 -12 23 -10 13 3 -9 2
-19 -2 -23 -12 -12 -7 -50 8 -62 12 -10 13 -15 2 -32 -11 -19 -10 -21 8 -21
11 0 20 -4 20 -10 0 -5 -5 -10 -11 -10 -8 0 -7 -6 2 -17 8 -9 9 -14 3 -10 -13
7 -30 -9 -36 -33 -2 -8 -9 -21 -15 -28 -10 -10 -10 -18 -2 -34 7 -12 9 -41 6
-69 -8 -69 6 -77 78 -44 60 27 75 26 75 -7 0 -18 2 -19 17 -7 9 8 14 9 10 2
-4 -6 -1 -14 5 -17 7 -3 4 -4 -7 -3 -13 1 -19 -3 -16 -13 2 -8 4 -19 5 -25 1
-5 5 -15 8 -21 7 -11 -29 -94 -45 -105 -5 -4 -7 -11 -4 -16 3 -5 -11 -27 -31
-49 -29 -31 -44 -39 -69 -38 -18 1 -33 -2 -33 -7 0 -10 -70 -1 -98 13 -12 6
-45 41 -72 76 -28 36 -50 61 -50 56 0 -5 -4 -4 -8 1 -13 18 -62 46 -72 40 -5
-3 -11 -1 -15 5 -4 6 -11 8 -16 5 -18 -12 -9 -34 21 -52 17 -9 30 -22 30 -27
0 -5 7 -18 16 -28 10 -10 18 -30 19 -45 7 -81 7 -100 0 -117 -5 -11 -3 -27 4
-38 7 -12 8 -17 2 -13 -6 3 -11 0 -11 -8 0 -18 -36 -51 -48 -43 -5 3 -15 -6
-22 -19 -7 -14 -17 -25 -21 -25 -5 0 -6 -6 -3 -14 4 -10 0 -13 -14 -9 -12 3
-22 -1 -25 -11 -4 -9 -14 -13 -27 -11 -16 3 -20 0 -16 -10 4 -11 -5 -13 -46
-10 -28 2 -56 1 -62 -3 -6 -3 -26 -7 -44 -8 -18 -2 -40 -8 -49 -16 -12 -9 -15
-10 -9 0 4 7 1 12 -9 12 -33 0 -41 22 -38 110 3 85 -8 130 -33 130 -12 0 -46
-73 -41 -88 1 -5 -6 -24 -15 -43 -9 -18 -29 -65 -43 -104 -14 -38 -31 -81 -37
-95 -6 -14 -11 -29 -9 -34 1 -5 -5 -6 -13 -3 -9 4 -17 -1 -21 -12 -6 -20 -36
-34 -70 -33 -11 0 -23 -5 -27 -11 -7 -11 -47 -18 -105 -18 -18 0 -35 -4 -38
-8 -3 -5 -14 -7 -25 -4 -13 3 -20 0 -20 -8 0 -9 -3 -10 -8 -3 -7 11 -63 28
-147 46 -27 5 -53 15 -57 21 -3 6 -16 12 -29 14 -12 2 -28 8 -36 14 -9 9 -13
8 -13 0 0 -8 -5 -9 -19 -1 -24 12 -54 2 -47 -16 3 -8 2 -14 -3 -14 -4 0 -9
-17 -10 -38 -2 -58 -6 -70 -32 -112 -15 -25 -32 -40 -44 -40 -12 0 -27 -6 -34
-12 -11 -11 -12 -10 -6 1 5 9 0 8 -17 -3 -14 -9 -28 -13 -31 -9 -4 3 -14 -2
-22 -13 -9 -10 -15 -14 -14 -9 3 23 -2 29 -12 15 -8 -11 -12 -12 -16 -2 -2 6
-9 10 -14 6 -13 -7 -80 15 -101 34 -10 8 -18 11 -18 7 0 -4 -9 0 -20 10 -11
10 -20 15 -20 11 0 -4 -9 -2 -20 4 -11 6 -17 16 -14 25 4 10 0 13 -14 10 -12
-2 -23 3 -26 12 -5 13 -9 13 -23 2 -12 -10 -14 -10 -9 -1 4 6 2 12 -3 12 -6 0
-11 7 -11 16 0 8 5 12 11 9 6 -4 5 2 -2 13 -7 12 -16 19 -19 17 -7 -5 -13 76
-13 189 1 63 5 91 14 97 7 4 10 11 5 16 -4 4 -12 0 -17 -9 -5 -9 -22 -19 -38
-23 -26 -6 -65 -35 -47 -35 4 0 1 -6 -6 -14 -45 -47 -49 -58 -43 -98 6 -36 5
-40 -10 -34 -15 5 -16 4 -5 -9 14 -17 7 -30 -18 -30 -9 0 -16 -6 -14 -12 2
-11 -31 -19 -60 -14 -4 0 -4 -7 -1 -17 6 -15 3 -14 -17 3 -21 18 -23 18 -17 2
6 -17 6 -17 -18 0 -13 10 -25 21 -25 25 0 4 -7 5 -15 2 -8 -4 -15 -1 -15 6 0
6 -5 8 -12 4 -7 -5 -8 -3 -3 5 4 8 -1 18 -14 27 -12 9 -19 20 -16 25 4 5 2 9
-4 9 -15 0 -7 102 15 183 10 37 22 67 26 67 4 0 8 6 8 13 0 14 87 101 102 103
4 1 11 2 14 3 4 0 1 7 -5 15 -9 10 -19 12 -39 5 -15 -5 -44 -11 -64 -14 -24
-4 -38 -11 -38 -20 0 -8 -9 -15 -19 -15 -12 0 -21 -9 -25 -25 -4 -14 -12 -25
-19 -25 -6 -1 -30 -9 -52 -20 -49 -24 -56 -24 -49 -5 5 11 -1 15 -24 15 -37 0
-65 25 -57 51 4 11 2 19 -4 19 -6 0 -11 6 -11 13 0 13 -42 100 -50 104 -5 3
-4 55 3 123 7 69 19 107 42 136 20 26 30 29 85 31 34 1 64 4 67 7 12 12 -47
54 -85 61 -45 7 -47 9 -103 125 -34 70 -50 182 -32 223 57 130 99 183 181 228
39 21 46 22 85 10 23 -7 66 -17 95 -23 28 -6 52 -15 52 -20 0 -4 6 -8 14 -8
25 0 114 -93 116 -120 5 -65 -1 -79 -54 -134 -48 -50 -77 -72 -62 -47 4 5 -5
4 -18 -2 -41 -20 -40 -45 2 -57 37 -11 37 -10 96 52 32 35 67 81 77 103 18 39
24 110 13 152 -6 22 -54 50 -139 80 -34 12 -65 33 -97 67 -40 43 -48 59 -54
102 -12 102 18 188 105 291 48 58 91 77 173 78 36 0 65 -2 63 -5 -2 -3 5 -6
15 -6 10 0 17 3 14 7 -5 9 23 22 54 25 17 2 22 -1 18 -11 -3 -8 1 -18 9 -22 7
-5 13 -12 13 -18 -1 -12 39 -33 84 -41 9 -2 33 -15 54 -29 33 -22 57 -30 67
-22 2 1 11 -4 20 -11 13 -11 17 -10 27 7 6 12 9 21 8 22 -2 0 -11 2 -21 4 -10
2 -27 11 -36 19 -10 9 -21 16 -25 16 -4 0 -14 6 -21 13 -8 6 -26 21 -41 32
-14 11 -32 26 -40 33 -8 8 -21 11 -29 8 -8 -3 -15 -1 -15 4 0 6 -5 10 -11 10
-6 0 -8 -8 -5 -17 5 -15 4 -15 -9 1 -8 11 -15 22 -15 25 0 3 -15 16 -34 29
-42 29 -49 52 -26 89 23 39 76 90 100 98 11 4 20 10 20 15 0 8 38 23 53 21 4
-1 7 3 7 7 0 4 15 7 33 7 17 0 37 3 44 8 9 6 11 3 9 -10 -3 -14 2 -19 20 -21
13 -1 40 -9 60 -17 20 -8 54 -15 75 -15 21 0 40 -4 43 -9 8 -13 46 -21 46 -10
0 5 -10 13 -22 18 -69 27 -117 110 -98 169 5 15 11 40 14 55 4 15 12 27 19 26
27 -3 39 2 34 15 -3 8 1 13 11 12 12 -1 17 6 16 22 0 16 6 24 25 29 44 10 44
14 1 58 -34 34 -40 47 -36 71 2 16 5 31 6 34 1 3 2 9 1 13 -1 5 3 6 8 3 5 -3
15 1 22 10 30 37 128 54 151 27 13 -17 19 -113 6 -113 -4 0 -8 -13 -8 -30 0
-27 3 -30 31 -30 17 0 42 -9 56 -20 14 -11 34 -20 44 -20 18 0 47 -25 80 -70
9 -12 29 -55 44 -96 30 -83 65 -118 65 -64 0 17 -4 38 -9 48 -5 9 -14 37 -21
62 -6 25 -16 59 -21 76 -5 17 -9 40 -9 52 0 25 36 66 50 57 19 -12 41 28 39
71 -3 42 15 79 32 69 5 -3 13 2 20 13 12 19 59 29 59 11z m-880 -100 c0 -3 12
-6 28 -5 15 1 26 -3 26 -9 -1 -5 14 -20 33 -32 19 -13 31 -18 28 -13 -14 23 5
8 24 -19 18 -25 19 -32 8 -61 -7 -18 -24 -46 -39 -62 -23 -25 -81 -130 -83
-150 -1 -14 -14 -20 -27 -12 -7 5 -57 9 -111 10 -55 0 -102 5 -105 10 -4 5
-20 21 -37 34 -35 29 -47 90 -19 90 10 0 14 6 11 15 -4 8 -2 17 3 20 6 4 10
15 10 26 0 10 5 19 11 19 6 0 9 6 6 14 -3 8 3 23 13 34 10 11 17 22 14 25 -8
8 56 27 92 27 31 0 69 24 60 38 -2 4 9 7 25 7 16 0 29 -3 29 -6z m-455 -279
c3 -5 -1 -10 -10 -10 -9 0 -13 5 -10 10 3 6 8 10 10 10 2 0 7 -4 10 -10z m-11
-43 c-5 -9 -4 -9 6 0 7 6 20 9 29 6 24 -7 85 -37 91 -44 10 -12 70 -28 70 -19
0 5 7 7 15 4 23 -9 18 -25 -23 -71 -21 -24 -46 -65 -56 -92 -21 -60 -37 -75
-104 -96 -42 -14 -58 -15 -78 -6 -14 6 -33 11 -42 11 -9 0 -30 14 -45 30 -16
17 -34 30 -41 30 -7 0 -27 14 -44 30 -22 20 -27 30 -16 30 8 0 12 5 9 10 -3 6
-3 10 2 10 4 0 14 12 21 28 7 15 30 39 52 54 22 15 40 36 40 45 0 15 2 16 10
3 8 -12 10 -12 16 3 7 20 45 42 74 44 13 1 18 -2 14 -10z m-250 -346 c64 -13
103 -27 112 -38 19 -25 18 -28 -13 -55 -16 -13 -37 -41 -47 -62 -27 -51 -53
-64 -73 -37 -15 22 -48 27 -72 12 -8 -5 -20 -26 -27 -47 -16 -47 -17 -57 -4
-49 16 10 87 -14 94 -31 3 -9 6 -50 6 -93 0 -73 -1 -77 -27 -93 -16 -9 -39
-17 -53 -19 -32 -3 -80 10 -80 22 0 5 -7 9 -17 9 -9 0 -40 23 -69 50 -29 28
-58 50 -64 50 -6 0 -8 5 -5 10 3 6 0 10 -8 10 -10 0 -13 8 -10 24 3 12 0 39
-5 59 -12 43 13 142 48 189 11 15 20 33 20 41 0 15 28 43 63 63 28 17 105 12
231 -15z m581 -61 c-3 -5 -12 -10 -18 -10 -7 0 -6 4 3 10 19 12 23 12 15 0z
m35 -10 c0 -5 -5 -10 -11 -10 -5 0 -7 5 -4 10 3 6 8 10 11 10 2 0 4 -4 4 -10z
m-962 -424 c70 -25 142 -83 133 -107 -15 -37 -117 -195 -134 -208 -10 -7 -16
-19 -13 -26 2 -7 -1 -18 -7 -24 -8 -8 -8 -11 0 -11 12 0 53 -52 57 -73 6 -24
45 -126 62 -158 7 -14 12 -35 9 -47 -2 -15 0 -19 11 -15 8 3 14 0 14 -5 0 -6
-9 -14 -21 -17 -11 -4 -18 -9 -15 -12 3 -3 -4 -16 -17 -28 -12 -11 -23 -27
-25 -34 -7 -34 -14 -81 -18 -136 -7 -92 -9 -96 -75 -165 l-61 -65 -66 0 c-65
0 -66 0 -93 40 -15 22 -26 43 -23 46 2 3 -4 15 -14 25 -9 10 -18 37 -18 59 -2
54 -12 123 -19 135 -3 6 -1 10 4 10 6 0 10 3 9 8 -2 12 21 63 37 78 8 9 15 21
15 27 0 7 9 23 19 36 17 23 19 23 91 12 41 -7 77 -15 80 -19 7 -9 71 -34 92
-35 9 -1 14 -5 12 -9 -13 -21 16 -5 30 17 9 14 13 24 9 23 -12 -3 -56 13 -71
25 -8 6 -23 12 -34 14 -11 2 -32 11 -47 21 -14 10 -51 30 -83 45 -57 27 -138
98 -138 121 0 7 -8 21 -18 32 -32 34 -44 89 -27 127 4 10 3 23 -3 29 -10 10
-4 27 23 68 5 8 10 38 12 65 3 82 16 135 34 135 14 0 11 -11 -8 -34 -16 -17
-12 -17 27 5 25 14 52 24 62 22 9 -2 19 1 23 6 9 16 136 13 183 -3z m3167
-746 c3 -5 1 -10 -4 -10 -6 0 -11 5 -11 10 0 6 2 10 4 10 3 0 8 -4 11 -10z
m-28 -25 c0 -8 -4 -12 -9 -9 -5 3 -6 10 -3 15 9 13 12 11 12 -6z m-3016 -450
c29 -31 62 -69 72 -85 10 -17 23 -30 29 -30 5 0 6 -4 3 -10 -3 -5 -1 -10 6
-10 23 0 1 -11 -33 -17 -18 -3 -36 -10 -40 -16 -6 -9 -8 -9 -8 -1 0 7 -11 11
-25 10 -14 0 -25 -3 -25 -6 0 -3 -11 -6 -25 -6 -14 -1 -22 2 -19 7 3 5 -1 9
-9 9 -19 0 -27 22 -27 71 0 29 3 38 13 33 6 -4 3 3 -8 16 -12 14 -14 20 -5 15
13 -8 13 -7 1 8 -9 11 -10 17 -2 17 6 0 11 8 11 18 0 49 28 42 91 -23z"/>
<path d="M3684 3312 c3 -6 0 -13 -6 -15 -10 -4 -10 -7 0 -15 8 -5 13 -12 13
-16 -3 -23 0 -30 8 -18 4 8 12 13 17 13 8 -1 9 4 6 29 -1 5 -12 14 -23 21 -13
6 -19 7 -15 1z"/>
<path d="M3195 3190 c-4 -6 0 -19 9 -29 9 -10 16 -23 16 -29 0 -6 10 -27 21
-47 18 -30 21 -47 16 -103 -2 -37 -11 -86 -20 -109 -15 -45 -10 -57 11 -23 7
11 17 20 24 20 6 0 19 8 27 17 13 13 15 30 10 82 -3 36 -13 86 -22 111 -18 52
-81 128 -92 110z"/>
<path d="M2645 3171 c-3 -5 5 -13 17 -17 12 -3 63 -49 115 -101 51 -52 97 -92
103 -88 20 12 10 62 -17 90 -38 37 -98 78 -155 104 -54 24 -55 24 -63 12z"/>
<path d="M3653 3003 c-7 -2 -22 -25 -33 -50 -11 -25 -42 -67 -70 -93 -27 -26
-50 -50 -50 -54 0 -3 17 -6 38 -6 41 0 72 23 72 52 0 9 13 40 28 70 16 29 29
61 29 71 0 9 -1 17 -1 16 -1 0 -7 -3 -13 -6z"/>
<path d="M2450 2822 c0 -4 9 -13 20 -20 23 -14 26 -7 6 14 -16 15 -26 18 -26
6z"/>
<path d="M1996 2668 c-30 -42 -13 -58 64 -58 75 0 244 -114 275 -185 7 -16 20
-39 28 -49 14 -19 16 -19 40 -3 25 16 89 19 103 4 4 -4 14 -7 23 -7 9 0 29 -7
46 -16 16 -8 26 -12 23 -8 -18 17 14 42 63 48 77 10 159 58 159 93 0 18 -14
16 -60 -7 -22 -11 -46 -20 -54 -20 -8 0 -16 -4 -18 -10 -1 -5 -37 -11 -78 -13
-58 -2 -91 2 -145 21 -91 30 -106 37 -198 100 -43 28 -84 52 -91 52 -8 0 -19
7 -26 15 -7 8 -21 15 -32 15 -11 0 -33 11 -50 25 -36 31 -52 31 -72 3z"/>
<path d="M2897 2613 c-4 -3 -7 -13 -7 -21 0 -12 3 -12 15 -2 8 7 15 16 15 21
0 11 -14 12 -23 2z"/>
<path d="M3272 2452 c-29 -26 -52 -51 -52 -57 0 -5 -16 -25 -35 -43 -36 -36
-65 -112 -65 -173 0 -26 -3 -30 -12 -21 -17 17 -28 15 -28 -4 0 -8 -5 -12 -10
-9 -6 4 -8 10 -6 14 6 10 -5 24 -31 38 -24 14 -35 6 -41 -32 -6 -40 7 -65 33
-63 19 2 22 5 13 16 -9 10 -6 12 15 8 15 -3 27 0 27 5 0 6 4 7 10 4 6 -4 7 1
3 10 -5 15 -3 15 15 4 11 -7 18 -18 15 -24 -4 -5 -3 -7 2 -3 4 4 16 3 27 -3
34 -18 49 5 42 65 -5 44 -1 64 26 129 21 51 44 87 68 109 20 17 44 41 54 53
15 19 15 21 -1 22 -9 1 -40 -20 -69 -45z"/>
<path d="M3760 2365 c-8 -10 -11 -30 -7 -58 5 -38 2 -49 -29 -93 l-35 -49 30
-3 c16 -2 51 4 77 13 26 9 76 16 110 16 35 1 66 4 69 9 3 4 -25 22 -62 40 -77
37 -93 52 -117 103 -19 42 -19 42 -36 22z"/>
<path d="M2977 2239 c7 -7 15 -10 18 -7 3 3 -2 9 -12 12 -14 6 -15 5 -6 -5z"/>
<path d="M4285 2140 c-3 -5 -1 -10 4 -10 6 0 11 5 11 10 0 6 -2 10 -4 10 -3 0
-8 -4 -11 -10z"/>
<path d="M2918 2084 c-2 -1 -19 -4 -38 -6 -57 -6 -170 -75 -170 -104 0 -8 -4
-14 -10 -14 -5 0 -10 -5 -10 -10 0 -6 -9 -20 -20 -32 -16 -18 -23 -19 -47 -9
-15 6 -45 28 -66 48 -31 29 -41 33 -48 22 -12 -18 -11 -29 1 -29 5 0 12 -11
16 -25 3 -13 13 -30 21 -37 26 -21 35 -59 43 -196 7 -108 13 -139 30 -167 12
-19 25 -35 28 -35 4 0 7 60 7 132 0 181 9 231 47 294 17 29 35 51 38 49 4 -3
17 7 30 20 13 13 39 29 59 36 20 6 52 18 71 27 19 9 38 16 41 15 3 -1 6 4 6
11 0 11 -21 18 -29 10z"/>
<path d="M2975 2080 c3 -5 8 -10 11 -10 2 0 4 5 4 10 0 6 -5 10 -11 10 -5 0
-7 -4 -4 -10z"/>
<path d="M3381 1853 c-6 -10 -11 -14 -11 -10 0 5 -11 0 -25 -11 -19 -15 -33
-18 -57 -13 -33 7 -133 -10 -169 -29 -10 -6 -19 -16 -19 -24 0 -9 25 -12 101
-12 91 1 105 -1 133 -22 41 -30 83 -77 102 -114 12 -22 18 -27 24 -18 9 14 -6
64 -40 130 -16 31 -21 54 -17 82 3 21 1 38 -5 38 -5 0 -6 5 -3 10 3 6 4 10 1
10 -3 0 -10 -8 -15 -17z"/>
<path d="M2018 1726 c-27 -21 -48 -43 -48 -50 0 -15 48 -28 52 -14 2 5 30 11
61 12 59 4 144 -22 175 -51 7 -7 17 -13 21 -13 4 0 14 -11 21 -25 17 -32 44
-34 34 -2 -8 28 -92 127 -113 134 -9 4 -23 12 -31 19 -9 7 -40 16 -70 20 -52
6 -57 4 -102 -30z"/>
<path d="M3756 1703 c-10 -31 20 -79 60 -98 48 -23 59 -18 25 11 -17 14 -31
34 -31 45 0 10 -6 19 -13 19 -8 0 -18 10 -24 23 l-10 22 -7 -22z"/>
<path d="M1950 1441 c0 -6 -3 -11 -7 -10 -5 1 -18 -2 -31 -6 -17 -6 -20 -11
-12 -20 6 -7 19 -12 28 -10 9 2 25 4 35 4 9 1 17 6 17 12 0 5 -5 7 -12 3 -8
-5 -9 -2 -5 9 3 9 2 19 -3 22 -6 4 -10 1 -10 -4z"/>
<path d="M3096 1359 c-14 -17 -26 -35 -26 -40 0 -5 -6 -9 -14 -9 -20 0 -8 -38
15 -51 39 -20 129 44 129 93 0 18 -34 38 -65 38 -7 0 -25 -14 -39 -31z"/>
<path d="M3946 1253 c-6 -14 -5 -15 5 -6 7 7 10 15 7 18 -3 3 -9 -2 -12 -12z"/>
<path d="M2160 1250 c0 -5 0 -12 0 -15 0 -12 14 -4 16 10 1 8 -2 15 -7 15 -5
0 -9 -4 -9 -10z"/>
</g>
</svg>
